# xmcd CD database file
#
# Track frame offsets:
#	150
#	14994
#	29301
#	43681
#	57502
#	72155
#	86931
#	100765
#	115949
#	130353
#	144343
#	157601
#	171675
#	191559
#
# Disc length: 2788 seconds
#
# Revision: 0
# Processed by: cddbd v1.5.2PL0 Copyright (c) Steve Scherf et al.
# Submitted via: CDex 1.51
#
DISCID=ca0ae20e
DTITLE=Patria e Adriana - Patria e Adriana
DYEAR=2007
DGENRE=Country
TTITLE0=Patria e Adriana - Destino
TTITLE1=Patria e Adriana - Pra Não Te Esquecer
TTITLE2=Patria e Adriana - Que Te Ama Sou Eu
TTITLE3=Patria e Adriana - Pra Você Nada Valeu
TTITLE4=Patria e Adriana - Ilusão
TTITLE5=Patria e Adriana - Quando o Amor é Pra Valer
TTITLE6=Patria e Adriana - Não Me Diga Que Me Ama
TTITLE7=Patria e Adriana - Mulher Ideal
TTITLE8=Patria e Adriana - Agora do Meu Jeito
TTITLE9=Patria e Adriana - Movida a Saudade
TTITLE10=Patria e Adriana - Eu Quero Fugir
TTITLE11=Patria e Adriana - Eu Nasci Pra Amar Você
TTITLE12=Patria e Adriana - Não Desligue o Radio
TTITLE13=Patria e Adriana - Palavras São Palavras
EXTD=YEAR: 2007
EXTT0=
EXTT1=
EXTT2=
EXTT3=
EXTT4=
EXTT5=
EXTT6=
EXTT7=
EXTT8=
EXTT9=
EXTT10=
EXTT11=
EXTT12=
EXTT13=
PLAYORDER=
